<?xml version="1.0" encoding="UTF-8"?>
<svg xmlns="http://www.w3.org/2000/svg" xmlns:xlink="http://www.w3.org/1999/xlink" width="50px" height="50px" viewBox="0 0 50 50" version="1.1">
<g id="surface1">
<path style=" stroke:none;fill-rule:nonzero;fill:rgb(7.45098%,66.666667%,32.156863%);fill-opacity:1;" d="M 50 25 C 50 38.808594 38.808594 50 25 50 C 11.191406 50 0 38.808594 0 25 C 0 11.191406 11.191406 0 25 0 C 38.808594 0 50 11.191406 50 25 Z M 50 25 "/>
<path style=" stroke:none;fill-rule:nonzero;fill:rgb(100%,100%,100%);fill-opacity:1;" d="M 31.683594 21.945312 C 30.101562 14.976562 26.371094 12.683594 25.96875 11.808594 C 25.53125 11.191406 25.085938 10.09375 25.085938 10.09375 C 25.078125 10.074219 25.066406 10.042969 25.050781 10.007812 C 25.007812 10.628906 24.984375 10.867188 24.398438 11.488281 C 23.496094 12.195312 18.855469 16.089844 18.476562 24.007812 C 18.125 31.390625 23.8125 35.792969 24.582031 36.351562 L 24.667969 36.414062 L 24.667969 36.410156 C 24.671875 36.445312 24.914062 38.167969 25.082031 39.992188 L 25.683594 39.992188 C 25.824219 38.703125 26.035156 37.421875 26.316406 36.15625 L 26.367188 36.125 C 26.710938 35.878906 27.039062 35.609375 27.347656 35.320312 L 27.382812 35.289062 C 29.019531 33.78125 31.957031 30.285156 31.929688 24.71875 C 31.921875 23.789062 31.839844 22.859375 31.683594 21.945312 Z M 25.015625 32.183594 C 25.015625 32.183594 25.015625 21.828125 25.359375 21.828125 C 25.625 21.828125 25.96875 35.1875 25.96875 35.1875 C 25.496094 35.132812 25.015625 32.988281 25.015625 32.183594 Z M 25.015625 32.183594 "/>
</g>
</svg>
