<?xml version="1.0" encoding="UTF-8"?>
<svg xmlns="http://www.w3.org/2000/svg" xmlns:xlink="http://www.w3.org/1999/xlink" width="80px" height="48px" viewBox="0 0 79 48" version="1.1">
<g id="surface1">
<path style=" stroke:none;fill-rule:nonzero;fill:rgb(0%,0%,0%);fill-opacity:1;" d="M 18.640625 12.515625 L 33.539062 12.515625 L 33.539062 13.707031 L 20.007812 13.707031 L 20.007812 22.679688 L 32.734375 22.679688 L 32.734375 23.871094 L 20.007812 23.871094 L 20.007812 33.722656 L 33.695312 33.722656 L 33.695312 34.917969 L 18.640625 34.917969 Z M 34.875 12.515625 L 36.457031 12.515625 L 43.472656 22.367188 L 50.644531 12.515625 L 60.398438 0 L 44.375 23.402344 L 52.632812 34.917969 L 50.988281 34.917969 L 43.472656 24.4375 L 35.929688 34.917969 L 34.316406 34.917969 L 42.636719 23.402344 Z M 53.222656 13.707031 L 53.222656 12.515625 L 70.203125 12.515625 L 70.203125 13.707031 L 62.378906 13.707031 L 62.378906 34.917969 L 61.011719 34.917969 L 61.011719 13.707031 Z M 0 12.515625 L 1.707031 12.515625 L 25.25 47.980469 L 15.519531 34.917969 L 1.429688 14.207031 L 1.367188 34.917969 L 0 34.917969 Z M 70.0625 33.363281 C 69.785156 33.363281 69.574219 33.148438 69.574219 32.867188 C 69.574219 32.585938 69.785156 32.367188 70.0625 32.367188 C 70.347656 32.367188 70.550781 32.585938 70.550781 32.867188 C 70.550781 33.148438 70.347656 33.363281 70.0625 33.363281 Z M 71.40625 32.050781 L 72.136719 32.050781 C 72.148438 32.449219 72.4375 32.71875 72.859375 32.71875 C 73.335938 32.71875 73.605469 32.429688 73.605469 31.890625 L 73.605469 28.476562 L 74.347656 28.476562 L 74.347656 31.894531 C 74.347656 32.867188 73.792969 33.425781 72.867188 33.425781 C 72 33.425781 71.40625 32.882812 71.40625 32.050781 Z M 75.324219 32.007812 L 76.058594 32.007812 C 76.125 32.46875 76.566406 32.757812 77.210938 32.757812 C 77.808594 32.757812 78.246094 32.445312 78.246094 32.019531 C 78.246094 31.648438 77.96875 31.429688 77.332031 31.277344 L 76.714844 31.128906 C 75.847656 30.921875 75.453125 30.5 75.453125 29.792969 C 75.453125 28.929688 76.148438 28.359375 77.195312 28.359375 C 78.167969 28.359375 78.878906 28.929688 78.921875 29.746094 L 78.199219 29.746094 C 78.128906 29.300781 77.746094 29.019531 77.1875 29.019531 C 76.597656 29.019531 76.207031 29.304688 76.207031 29.742188 C 76.207031 30.085938 76.457031 30.285156 77.082031 30.429688 L 77.613281 30.5625 C 78.59375 30.792969 79 31.195312 79 31.921875 C 79 32.84375 78.289062 33.425781 77.152344 33.425781 C 76.089844 33.425781 75.375 32.871094 75.324219 32.007812 Z M 75.324219 32.007812 "/>
</g>
</svg>
